<?xml version="1.0" encoding="UTF-8"?>
<svg width="64px" height="64px" viewBox="0 0 64 64" version="1.1" xmlns="http://www.w3.org/2000/svg" xmlns:xlink="http://www.w3.org/1999/xlink">
    <!-- Generator: Sketch 64 (93537) - https://sketch.com -->
    <title>Icon-Service/64/Amazon-Augmented-AI-A2I</title>
    <desc>Created with Sketch.</desc>
    <g id="Icon-Service/64/Amazon-Augmented-AI-A2I" stroke="none" stroke-width="1" fill="none" fill-rule="evenodd">
        <path d="M44.8230042,58.0096899 C44.5150042,54.1266899 42.4370042,50.5686899 39.2440042,48.5556899 C37.4780042,47.4436899 35.4520042,46.8546899 33.3850042,46.8546899 C27.3750042,46.8546899 22.4290042,51.7736899 21.9470042,58.0096899 L44.8230042,58.0096899 Z M33.4060042,44.8546899 C36.8440042,44.8546899 39.6400042,42.0576899 39.6400042,38.6196899 C39.6400042,35.1816899 36.8440042,32.3846899 33.4060042,32.3846899 C29.9680042,32.3846899 27.1710042,35.1816899 27.1710042,38.6196899 C27.1710042,42.0576899 29.9680042,44.8546899 33.4060042,44.8546899 L33.4060042,44.8546899 Z M46.8620042,59.0096899 C46.8620042,59.5616899 46.4150042,60.0096899 45.8620042,60.0096899 L20.9090042,60.0096899 C20.3560042,60.0096899 19.9090042,59.5616899 19.9090042,59.0096899 C19.9090042,52.7886899 23.7550042,47.5046899 29.0750042,45.6106899 C26.7360042,44.1566899 25.1710042,41.5706899 25.1710042,38.6196899 C25.1710042,34.0786899 28.8650042,30.3846899 33.4060042,30.3846899 C37.9460042,30.3846899 41.6400042,34.0786899 41.6400042,38.6196899 C41.6400042,41.5726899 40.0730042,44.1586899 37.7330042,45.6136899 C38.6290042,45.9326899 39.4940042,46.3486899 40.3100042,46.8636899 C44.3510042,49.4106899 46.8620042,54.0646899 46.8620042,59.0096899 L46.8620042,59.0096899 Z M12.5010042,33.1576899 L13.5300042,34.8726899 L19.3880042,31.3586899 L23.0220042,33.5556899 L24.0570042,31.8446899 L20.0630042,29.4286899 L20.0640042,25.1156899 L26.5600042,21.3906899 C26.8720042,21.2126899 27.0630042,20.8816899 27.0630042,20.5236899 L27.0630042,10.9926899 L25.0630042,10.9926899 L25.0630042,19.9446899 L19.0790042,23.3756899 L13.0630042,20.0196899 L13.0630042,12.4996899 L19.0630042,8.92168985 L19.0630042,15.9926899 L21.0630042,15.9926899 L21.0630042,7.72868985 L25.4100042,5.13568985 L32.0630042,8.33568985 L32.0630042,27.9926899 L34.0630042,27.9926899 L34.0630042,7.70668985 C34.0630042,7.32268985 33.8430042,6.97168985 33.4970042,6.80568985 L25.7930042,3.10068985 C25.4890042,2.95568985 25.1360042,2.97168985 24.8460042,3.14268985 L11.5510042,11.0726899 C11.2490042,11.2536899 11.0630042,11.5796899 11.0630042,11.9316899 L11.0630042,19.5076899 L4.69200421,22.0556899 C4.31300421,22.2076899 4.06500421,22.5726899 4.06300421,22.9806899 L4,38.1586899 C3.99900421,38.5046899 4.17600421,38.8266899 4.46900421,39.0106899 L11.0630042,43.1386899 L11.0630042,49.8016899 C11.0630042,50.1156899 11.2120042,50.4126899 11.4640042,50.6006899 L16.7250042,54.5476899 L17.9250042,52.9476899 L13.0630042,49.3016899 L13.0630042,42.5846899 C13.0630042,42.4816899 13.0480042,42.3806899 13.0170042,42.2846899 L18.7930042,38.8196899 L17.7630042,37.1046899 L11.3440042,40.9556899 L6.00200421,37.6106899 L6.02500421,32.0096899 L12.2150042,28.2956899 L11.1850042,26.5806899 L6.03500421,29.6706899 L6.06000421,23.6626899 L11.5520042,21.4666899 L18.0640042,25.0996899 L18.0630042,29.8216899 L12.5010042,33.1576899 Z M43.7350042,34.3086899 C44.0780042,33.1736899 44.2520042,32.0136899 44.2520042,30.8626899 C44.2520042,25.5896899 40.7220042,20.9146899 35.6690042,19.4936899 L35.1280042,21.4196899 C39.3220042,22.5986899 42.2520042,26.4816899 42.2520042,30.8626899 C42.2520042,31.8176899 42.1070042,32.7826899 41.8210042,33.7306899 L43.7350042,34.3086899 Z M59.9980042,35.6386899 L56.2220042,45.5176899 C56.1240042,45.7756899 55.9240042,45.9806899 55.6690042,46.0856899 C55.4140042,46.1906899 55.1280042,46.1856899 54.8770042,46.0726899 L51.6360042,44.6116899 C51.4940042,44.8386899 51.3600042,45.0576899 51.2290042,45.2706899 C50.3410042,46.7176899 49.5740042,47.9686899 47.8270042,49.2876899 L46.6220042,47.6906899 C48.0670042,46.6006899 48.6780042,45.6036899 49.5250042,44.2246899 C49.7990042,43.7786899 50.0900042,43.3046899 50.4290042,42.7926899 C50.7010042,42.3846899 51.2270042,42.2336899 51.6740042,42.4346899 L54.7320042,43.8136899 L57.7510042,35.9146899 L54.5380042,34.8936899 C54.0710042,34.7446899 53.7800042,34.2806899 53.8510042,33.7956899 C54.2070042,31.3686899 54.1380042,28.8996899 53.6490042,26.4536899 C53.5530042,25.9746899 53.8180042,25.4956899 54.2750042,25.3226899 L57.4140042,24.1336899 L53.9540042,16.4136899 L50.9740042,17.9636899 C50.5380042,18.1886899 50.0080042,18.0676899 49.7150042,17.6776899 C48.2170042,15.6926899 46.4180042,13.9956899 44.3680042,12.6346899 C43.9610042,12.3636899 43.8090042,11.8376899 44.0100042,11.3906899 L45.3900042,8.31968985 L37.4000042,5.27668985 L36.2390042,7.99668985 L34.3990042,7.21168985 L35.9380042,3.60768985 C36.1490042,3.11368985 36.7140042,2.87468985 37.2140042,3.06568985 L47.0930042,6.82768985 C47.3500042,6.92668985 47.5550042,7.12568985 47.6610042,7.38068985 C47.7660042,7.63468985 47.7620042,7.92168985 47.6490042,8.17268985 L46.1760042,11.4516899 C47.8960042,12.6866899 49.4430042,14.1466899 50.7880042,15.8056899 L53.9700042,14.1496899 C54.2160042,14.0236899 54.5000042,14.0026899 54.7610042,14.0926899 C55.0210042,14.1826899 55.2320042,14.3766899 55.3440042,14.6276899 L59.6730042,24.2836899 C59.7860042,24.5346899 59.7900042,24.8216899 59.6840042,25.0766899 C59.5780042,25.3306899 59.3730042,25.5306899 59.1150042,25.6276899 L55.7620042,26.8976899 C56.1090042,29.0106899 56.1680042,31.1366899 55.9380042,33.2396899 L59.3660042,34.3286899 C59.6290042,34.4126899 59.8440042,34.5996899 59.9640042,34.8476899 C60.0840042,35.0956899 60.0950042,35.3826899 59.9980042,35.6386899 L59.9980042,35.6386899 Z" id="Amazon-Augmented-AI-A2I_Icon_64_Squid" fill="#232F3D"></path>
    </g>
</svg>