<?xml version="1.0" encoding="UTF-8"?>
<svg width="44px" height="44px" viewBox="0 0 44 44" version="1.1" xmlns="http://www.w3.org/2000/svg" xmlns:xlink="http://www.w3.org/1999/xlink">
    <!-- Generator: Sketch 56.2 (81672) - https://sketch.com -->
    <title>AWS-Transcribe_Icon_48_Squid</title>
    <desc>Created with Sketch.</desc>
    <g id="Page-1" stroke="none" stroke-width="1" fill="none" fill-rule="evenodd">
        <g id="AWS-Machine-Learning-Product-Icons_Squid" transform="translate(-136.000000, -1212.000000)" fill="#232F3E">
            <path d="M158.008556,1226.00159 L164.006222,1226.00159 L164.006222,1224.00136 L158.008556,1224.00136 L158.008556,1226.00159 Z M158.008556,1220.97102 L166.005445,1220.97102 L166.005445,1218.97079 L158.008556,1218.97079 L158.008556,1220.97102 Z M164.006222,1230.00205 L174.002333,1230.00205 L174.002333,1228.00182 L164.006222,1228.00182 L164.006222,1230.00205 Z M166.005445,1226.00159 L174.002333,1226.00159 L174.002333,1224.00136 L166.005445,1224.00136 L166.005445,1226.00159 Z M178.000778,1245.00375 L166.005445,1245.00375 L166.005445,1247.00398 L179.000389,1247.00398 C179.552174,1247.00398 180,1246.55593 180,1246.00386 L180,1232.00227 L178.000778,1232.00227 L178.000778,1245.00375 Z M176.371412,1220.00091 L171.0035,1215.22737 L171.0035,1220.00091 L176.371412,1220.00091 Z M180,1221.00102 L180,1227.0017 L178.000778,1227.0017 L178.000778,1222.00114 L170.003889,1222.00114 C169.451104,1222.00114 169.004278,1221.55309 169.004278,1221.00102 L169.004278,1214.00023 L156.009334,1214.00323 L156.009334,1224.00136 L154.010112,1224.00136 L154.010112,1213.00311 C154.010112,1212.45105 154.456938,1212.003 155.009723,1212.003 L170.003889,1212 C170.243796,1212 170.480704,1212.08601 170.667631,1212.25203 L179.664131,1220.25294 C179.881046,1220.44696 180,1220.72099 180,1221.00102 L180,1221.00102 Z M142.014778,1243.00352 L144.014001,1243.00352 L144.014001,1237.00284 L142.014778,1237.00284 L142.014778,1243.00352 Z M145.013612,1245.00375 L147.012834,1245.00375 L147.012834,1234.0025 L145.013612,1234.0025 L145.013612,1245.00375 Z M148.012445,1243.00352 L150.011667,1243.00352 L150.011667,1235.00261 L148.012445,1235.00261 L148.012445,1243.00352 Z M151.011278,1246.00386 L153.0105,1246.00386 L153.0105,1233.00239 L151.011278,1233.00239 L151.011278,1246.00386 Z M154.010112,1243.00352 L156.009334,1243.00352 L156.009334,1235.00261 L154.010112,1235.00261 L154.010112,1243.00352 Z M157.008945,1246.00386 L159.008167,1246.00386 L159.008167,1233.00239 L157.008945,1233.00239 L157.008945,1246.00386 Z M160.007778,1242.00341 L162.007,1242.00341 L162.007,1236.00273 L160.007778,1236.00273 L160.007778,1242.00341 Z M162.172936,1246.45292 L163.840287,1247.55504 C161.213309,1251.53349 156.680073,1254.00477 152.010889,1254.00477 C149.610823,1254.00477 147.138785,1253.3477 144.983623,1252.14556 L137.79442,1255.86899 C137.607493,1255.958 137.413569,1256 137.224642,1256 C136.893771,1256 136.576894,1255.86999 136.341985,1255.62496 C135.976128,1255.24391 135.895159,1254.67185 136.141064,1254.2018 L139.860617,1247.05498 C138.626097,1245.08776 137.555513,1242.89451 137.555513,1240.23021 C137.555513,1231.98527 143.635148,1226.00159 152.010889,1226.00159 C154.641866,1226.00159 157.242854,1226.74468 159.530964,1228.14984 L158.484371,1229.85403 C156.540127,1228.65989 154.241022,1228.00182 152.010889,1228.00182 C145.820298,1228.00182 139.554736,1232.2023 139.554736,1240.23021 C139.554736,1242.59848 140.659306,1244.62271 141.852841,1246.45792 C142.049765,1246.76095 142.067758,1247.14599 141.900823,1247.46603 L139.032939,1252.97566 L144.553791,1250.11633 C144.86367,1249.95431 145.234526,1249.96831 145.534409,1250.15134 C147.46066,1251.32947 149.820741,1252.00455 152.010889,1252.00455 C156.016331,1252.00455 159.910816,1249.8773 162.172936,1246.45292 L162.172936,1246.45292 Z" id="AWS-Transcribe_Icon_48_Squid"></path>
        </g>
    </g>
</svg>